<svg width="317" height="352" viewBox="0 0 317 352" fill="none" xmlns="http://www.w3.org/2000/svg">
<g clip-path="url(#clip0)">
<path d="M203.58 224.6C202.64 215.69 198.66 204.15 183.34 213.87L81.15 272.86C66.77 280.21 40 260.73 32.6 248.9C25.42 237.43 22.58 203.65 36.13 194.88L138.32 135.89C155.59 126.86 145.08 116.9 137.56 111.89L69.55 72.53C62.41 68.04 54.05 65.63 45.43 65.62C44.34 65.62 43.25 65.66 42.16 65.73C42.15 65.73 42.14 65.73 42.13 65.73C42.11 65.73 42.1 65.72 42.08 65.72C37.44 65.23 31.64 66.38 24.72 70.07C17.04 74.06 10.67 80.15 6.3 87.71C5.92 88.36 5.57 89.03 5.22 89.69C3.44 93.14 2.12 96.77 1.27 100.49C1.26 100.54 1.24 100.6 1.23 100.66C1.04 101.53 0.870002 102.4 0.730002 103.27C0.710002 103.37 0.700002 103.48 0.680002 103.58C0.550002 104.43 0.440002 105.29 0.350002 106.14C0.340002 106.26 0.330002 106.37 0.320002 106.49C0.240002 107.35 0.190002 108.21 0.160002 109.07C0.160002 109.16 0.160002 109.25 0.150002 109.34C0.130002 110.24 0.130002 111.14 0.160002 112.04L0.0100022 240.01C-0.129998 248.21 1.97 256.29 6.1 263.48C10.24 270.67 16.18 276.54 23.34 280.53L134.11 344.63C134.79 345.06 135.48 345.46 136.18 345.85C136.3 345.91 136.42 345.98 136.54 346.05C137.23 346.42 137.92 346.77 138.62 347.11C138.73 347.16 138.84 347.21 138.95 347.26C140.46 347.97 142 348.59 143.58 349.12C143.63 349.13 143.68 349.15 143.73 349.17C144.53 349.44 145.35 349.69 146.17 349.91C146.21 349.92 146.25 349.93 146.29 349.94C149.45 350.79 152.71 351.31 156.03 351.47C156.1 351.47 156.18 351.48 156.25 351.48C156.91 351.51 157.57 351.53 158.24 351.53C159.33 351.53 160.42 351.49 161.51 351.42C161.52 351.42 161.53 351.42 161.54 351.42C161.56 351.42 161.57 351.42 161.59 351.43C166.23 351.92 172.02 350.77 178.95 347.08C186.63 343.1 193 337.01 197.37 329.46C201.69 322 203.8 313.56 203.5 305.13L203.58 224.6Z" fill="url(#paint0_linear)"/>
<path d="M316.93 111.52C317.07 103.32 314.97 95.24 310.84 88.05C306.7 80.87 300.76 75 293.6 71.01L182.83 6.91C175.69 2.42 167.33 0.00999997 158.71 -2.75923e-08C149.98 -0.01 141.52 2.44 134.22 7.09C115.08 18.96 118.67 33.31 127.15 38.87L235.12 101.35C243.16 105.84 249.84 112.43 254.49 120.5C259.14 128.57 261.49 137.66 261.33 146.86L261.17 271.61C261.72 281.74 272.33 292.05 292.2 281.45C299.88 277.47 306.25 271.38 310.62 263.83C314.94 256.37 317.05 247.93 316.75 239.5L316.93 111.52Z" fill="#141515"/>
</g>
<defs>
<linearGradient id="paint0_linear" x1="2.1501e-06" y1="208.581" x2="203.584" y2="208.581" gradientUnits="userSpaceOnUse">
<stop stop-color="#E78C53"/>
<stop offset="1" stop-color="#EDA658"/>
</linearGradient>
<clipPath id="clip0">
<rect width="316.94" height="351.54" fill="white"/>
</clipPath>
</defs>
</svg>

