<svg width="208" height="208" viewBox="0 0 208 208" fill="none" xmlns="http://www.w3.org/2000/svg">
<g clip-path="url(#clip0)">
<path d="M138.24 207.28H69.04C56.84 207.28 46.91 197.35 46.91 185.15V164.1C46.91 162.04 45.24 160.37 43.18 160.37H22.13C9.93 160.37 0 150.44 0 138.24V121.23C0 118.53 2.19 116.34 4.89 116.34C7.59 116.34 9.78 118.53 9.78 121.23V138.24C9.78 145.05 15.32 150.59 22.13 150.59H43.19C50.64 150.59 56.7 156.65 56.7 164.1V185.16C56.7 191.97 62.24 197.51 69.05 197.51H138.25C145.06 197.51 150.6 191.97 150.6 185.16V164.1C150.6 156.65 156.66 150.59 164.11 150.59H185.17C191.98 150.59 197.52 145.05 197.52 138.24L197.54 112.53C197.54 109.8 195.33 107.57 192.59 107.57H153.71C150.65 107.57 147.92 109.52 146.93 112.42L133.66 151.2C130.36 160.85 116.65 160.74 113.53 151.01C81.06 50.51 83.43 56.86 82.51 56.85C81.63 56.84 82.83 54.17 68.46 96.19C66.12 103.05 59.67 107.65 52.42 107.65H13.53C6.08 107.65 0.02 101.59 0.02 94.14L0 69.04C0 56.83 9.93 46.91 22.13 46.91H43.19C45.25 46.91 46.92 45.24 46.92 43.18V22.13C46.91 9.93 56.84 0 69.04 0H138.24C150.44 0 160.37 9.93 160.37 22.13V43.19C160.37 45.25 162.04 46.92 164.1 46.92H185.16C197.36 46.92 207.29 56.85 207.29 69.05V84.6C207.29 87.3 205.1 89.49 202.4 89.49C199.7 89.49 197.51 87.3 197.51 84.6V69.04C197.51 62.23 191.97 56.69 185.16 56.69H164.1C156.65 56.69 150.59 50.63 150.59 43.18V22.13C150.59 15.32 145.05 9.78 138.24 9.78H69.04C62.23 9.78 56.69 15.32 56.69 22.13V43.19C56.69 50.64 50.63 56.7 43.18 56.7H22.13C15.32 56.7 9.78 62.24 9.78 69.05L9.79 94.15C9.79 96.21 11.47 97.88 13.52 97.88H52.4C55.47 97.88 58.19 95.93 59.18 93.03L72.44 54.25C75.75 44.58 89.45 44.73 92.57 54.44C124.97 154.73 122.66 148.59 123.59 148.6C124.47 148.6 123.26 151.3 137.64 109.26C139.98 102.4 146.43 97.8 153.67 97.8H192.55C200.69 97.8 207.29 104.39 207.28 112.54L207.26 138.25C207.26 150.45 197.33 160.37 185.13 160.37H164.07C162.01 160.37 160.34 162.04 160.34 164.1V185.16C160.37 197.35 150.44 207.28 138.24 207.28Z" fill="url(#paint0_linear)"/>
</g>
<defs>
<linearGradient id="paint0_linear" x1="0" y1="0" x2="207" y2="207" gradientUnits="userSpaceOnUse">
<stop stop-color="#3ADCD2"/>
<stop offset="1" stop-color="#934BDA"/>
</linearGradient>
<clipPath id="clip0">
<rect width="207.3" height="207.28" fill="white"/>
</clipPath>
</defs>
</svg>

